<svg xmlns="http://www.w3.org/2000/svg" xmlns:xlink="http://www.w3.org/1999/xlink" width="800" height="800" version="1.1" viewBox="-4 0 62 62"><title>Film</title><desc>Created with Sketch.</desc><g id="Page-1" fill="none" fill-rule="evenodd" stroke="none" stroke-width="1"><g id="Film" stroke="#6B6C6E" stroke-width="2" transform="translate(1.000000, 0.000000)"><g id="Shape"><path d="M0,62 L0,0"/><path d="M52,0 L52,62"/><path d="M42,25 C42,26.1 41,27 39.9,27 L12.2,27 C11,27 10.1,26.1 10.1,25 L10.1,8 C10.1,6.9 11.1,6 12.2,6 L39.9,6 C41.1,6 42,6.9 42,8 L42,25 L42,25 Z"/><path d="M42,54 C42,55.1 41,56 39.9,56 L12.2,56 C11,56 10.1,55.1 10.1,54 L10.1,36 C10.1,34.9 11.1,34 12.2,34 L39.9,34 C41.1,34 42,34.9 42,36 L42,54 L42,54 Z"/></g><path id="Shape" d="M5,4 L5,9.9"/><path id="Shape" d="M47,4 L47,10"/><path id="Shape" d="M5,15.2 L5,21"/><path id="Shape" d="M47,15 L47,21"/><path id="Shape" d="M5,27 L5,32.9"/><path id="Shape" d="M47,27 L47,33"/><path id="Shape" d="M5,39.2 L5,45"/><path id="Shape" d="M47,40 L47,46"/><path id="Shape" d="M5,51.1 L5,57"/><path id="Shape" d="M47,51 L47,57"/></g></g></svg>